<svg width="100%" height="100%" viewBox="0 0 1438 784" preserveAspectRatio="none" fill="none" xmlns="http://www.w3.org/2000/svg">
<g clip-path="url(#clip0_240_740)">
<path fill-rule="evenodd" clip-rule="evenodd" d="M-2 289V232.105C183.22 158.928 359.231 95.5279 415.591 228.136C455.589 322.248 406.962 462.872 463.979 501.281C468.352 504.226 473.345 506.571 479.048 508.247C521.646 520.768 666.187 347.107 756.204 519.358C764.787 535.782 789.008 524.348 791.601 523.124C806.418 516.129 812.5 514 831.965 510.336C850.72 509.332 862.5 507 880.5 519.358C902 539.5 894.104 564.194 899.663 574.868C902.722 580.741 903.124 581.613 904.262 582.15C910.423 585.063 914.414 583.579 922.982 581.749C947.157 576.585 984.842 560.696 993.477 557.647C1070.86 530.321 1094.15 560.982 1098.58 594.175C1101.28 614.384 1097 635.532 1093.67 645.104C1135.66 653.415 1200.23 629.652 1322.35 625.463C1329.61 628.052 1380.34 646.155 1364.03 715.416C1357.24 744.238 1295.5 730.331 1281.94 724.858C1279.51 686.347 1282.07 690.062 1281.17 685.907C1268.13 626.077 1209.06 667.769 1003.45 671.256C933.252 672.446 943.075 641.037 927.876 620.993C926.272 618.88 924.393 616.894 922.111 615.085C866.361 570.887 861.263 579.617 792.867 594.863C769.765 586.465 764.893 577.026 763.556 574.437C701.859 454.883 655.702 452.201 440.071 562.184C393.982 585.691 377.062 548.624 348.227 494.253C309.206 420.672 391.584 345.337 370.993 275.951C327.075 127.965 109.668 244.385 -2 289Z" fill="#7AD3FF"/>
<path fill-rule="evenodd" clip-rule="evenodd" d="M-2 339.755V284.257C109.646 239.667 327.009 128.305 370.917 276.215C391.505 345.562 331.218 406.863 355.836 491.398C373.134 550.81 398.436 572.99 445.741 552.298C671.883 453.367 714.094 448.969 763.4 574.542C769.694 590.569 821.367 608.26 935.764 636.702C967.22 644.525 1042.24 649.273 1129.99 643.685C1180.37 640.474 1234.96 631.846 1287.91 623.554C1343.92 614.78 1359.27 638.99 1362.58 642.514C1378.32 659.253 1409.3 727.537 1365.58 737.947C1353.39 740.85 1329.1 740.377 1300.63 738.371C1250.07 734.804 1186.38 726.4 1153.97 723.433C1091.75 717.743 1039.36 705.508 977.999 693.839C972.6 692.814 967.131 691.789 961.582 690.779C843.436 669.219 743.408 609.768 735.881 611.891C683.472 626.668 694.331 542.572 633.252 524.403C520.992 491.012 533.693 610.656 323.706 598.451C219.848 592.409 336.214 458.92 329.287 373.863C315.589 205.608 78.7339 308.79 -2 339.755Z" fill="#84FEF3"/>
<path fill-rule="evenodd" clip-rule="evenodd" d="M1098 766.689C1099.76 766.674 1089.49 784.039 1093.74 784C1089.5 784.039 1099.76 766.674 1098 766.689Z" fill="#FEF6D0"/>
<path fill-rule="evenodd" clip-rule="evenodd" d="M-2 338.757V455.967C4.30829 453.262 11.5832 450.085 19.5626 446.6C90.8013 415.485 216.07 356.303 213.08 393.629C213.052 393.977 206.109 408.689 204.439 411.633C198.198 422.635 183.315 438.638 158.905 529.125C158.712 530.876 158.403 533.001 158.047 535.451C152.164 575.96 133.377 705.328 408.271 701.247C456.044 700.54 498.205 681.082 532.821 666.792C556.024 657.213 575.549 644.288 590.431 650.789C695.197 732.637 772.683 701.926 820.908 682.813C854.007 669.694 873.322 662.039 878.211 699.992C885.646 757.703 900.452 768.36 1097.37 766.694L1098 766.689C1112.13 766.567 1216.37 765.665 1238.1 764.282C1275.35 761.913 1277.37 757.904 1287 738.164C1284.57 699.646 1282.33 689.361 1281.43 685.2C1273.13 647.091 1246.14 650.164 1174.53 658.323C1133.69 662.976 1078.33 669.282 1003.65 670.548C950.37 671.45 943.18 653.578 936.166 636.145C932.963 628.184 929.797 620.314 922.296 614.366C872.992 575.277 863.296 577.578 814.419 589.179C808.019 590.698 800.948 592.376 793.028 594.142C783.515 596.826 774.06 599.721 764.604 602.616C755.149 605.51 745.694 608.405 736.181 611.089C708.922 618.777 698.771 599.72 686.72 577.094C675.593 556.202 662.845 532.267 633.51 523.538C582.124 508.249 556.91 525.022 524.552 546.548C486.191 572.067 437.79 604.265 323.838 597.639C259.363 593.887 279.727 541.022 302.808 481.102C316.922 444.464 332.051 405.188 329.422 372.89C316.498 214.1 105.025 296.892 13.2445 332.825C7.70339 334.994 2.59854 336.993 -2 338.757Z" fill="#FEF6D0"/>
</g>
<defs>
<clipPath id="clip0_240_740">
<rect width="1440" height="784" fill="white" transform="translate(-2)"/>
</clipPath>
</defs>
</svg>
