<svg width="41" height="41" viewBox="0 0 41 41" fill="none" xmlns="http://www.w3.org/2000/svg">
<path d="M14.6162 6.29535C16.4816 5.52269 18.4809 5.125 20.5 5.125C24.5777 5.125 28.4884 6.74486 31.3718 9.62823C34.2551 12.5116 35.875 16.4223 35.875 20.5C35.875 24.5777 34.2551 28.4884 31.3718 31.3718C28.4884 34.2551 24.5777 35.875 20.5 35.875C18.4809 35.875 16.4816 35.4773 14.6162 34.7046C12.7509 33.932 11.0559 32.7995 9.62823 31.3718C8.20053 29.9441 7.06802 28.2491 6.29535 26.3838C5.52269 24.5184 5.125 22.5191 5.125 20.5C5.125 18.4809 5.52269 16.4816 6.29535 14.6162C7.06802 12.7509 8.20053 11.0559 9.62823 9.62823C11.0559 8.20053 12.7509 7.06802 14.6162 6.29535Z" stroke="black" stroke-width="1.75" stroke-linecap="round" stroke-linejoin="round"/>
<path d="M27.3333 20.5L20.5 13.6667" stroke="black" stroke-width="1.75" stroke-linecap="round" stroke-linejoin="round"/>
<path d="M27.3334 20.5H13.6667" stroke="black" stroke-width="1.75" stroke-linecap="round" stroke-linejoin="round"/>
<path d="M20.5 27.3333L27.3333 20.5" stroke="black" stroke-width="1.75" stroke-linecap="round" stroke-linejoin="round"/>
</svg>
