<svg width="1440" height="1100" viewBox="0 0 1440 1100" preserveAspectRatio="none" fill="none" xmlns="http://www.w3.org/2000/svg">
<g clip-path="url(#clip0_6_136)">
<rect width="1440" height="1100" fill="white"/>
<g clip-path="url(#clip1_6_136)">
<path fill-rule="evenodd" clip-rule="evenodd" d="M1506.03 748.828C1546 765.508 1849.78 594.468 1841.69 806.703C1840.7 833.098 1830.15 828.904 1700.78 859.251C1543.45 864.566 1460.28 894.757 1406.19 884.199C1408.65 839.226 1410.21 840.188 1403.86 795.066C1441.64 792.882 1490.54 757.655 1506.03 748.828Z" fill="#D9A9FF"/>
<path fill-rule="evenodd" clip-rule="evenodd" d="M666.222 439.827C678.108 320.352 690.619 274.797 690.619 224.592C690.619 178.2 689.993 101.94 592.406 66.9878C504.216 35.4013 315.908 119.734 252.101 144.141C252.101 144.141 252.101 144.141 128.866 189C33.7803 223.611 33.735 221.436 20.6434 225.645C42.5104 219.197 14.4758 227.628 20.6434 225.645C2.18656 232.261 8.25297 229.302 0 232.091V306.162C37.361 300.444 86.1494 282.931 139.653 263.728C328.232 196.042 575.386 107.331 587.228 439.827C588.295 469.764 584.95 503.041 581.767 534.704C573.058 621.326 565.565 695.861 652.969 656.836C653.038 656.806 653.699 656.403 654.902 655.669C676.315 642.613 870.158 522.83 978.377 519.465C1021.68 518.118 1027.88 548.678 1035.1 580.651C1039.5 600.124 1101.34 765.886 1114.75 781.635C1134.22 804.511 1366.85 875.142 1388.75 859.347C1412.52 811.329 1430.37 810.312 1403.76 772.789C1363.08 715.438 1281.77 903.129 1208.58 671.351C1200.45 620.332 1194.19 696.772 1190.44 631.315C1165.17 571.339 1197.92 526.275 1172.9 450.65C1147.88 375.026 1036.55 375.047 978.377 405.551C920.2 436.055 888.849 456.955 866.955 472.247C856.945 479.238 734.59 570.892 680.167 547.201C655.744 536.571 661.713 485.15 666.222 439.827Z" fill="#D9A9FF"/>
<path fill-rule="evenodd" clip-rule="evenodd" d="M1855 465.446V589.371C1784.95 587.649 1533.71 738.052 1507.56 752.942C1498.4 758.153 1472.88 790.182 1404.4 807.544C1357.11 819.534 1279.86 829.715 1250.38 818.995C1229.78 811.51 1209.86 769.301 1217.62 749.597C1241.87 687.955 1196.2 717.115 1120.16 725.535C1072.04 705.391 1082.01 708.642 1034.42 730.775C1031.08 732.324 984.287 746.38 973.231 725.535C857.27 506.949 670.633 730.783 615.757 714.895C512.616 685.029 587.504 484.591 532.024 356.005C459.426 187.726 238.598 269.493 0 362.357V298.144C167.566 250.354 603.242 -0.17649 618.295 428.293C621.918 531.337 545.262 672.935 624.055 654.123C631.102 652.443 641.471 648.515 649.097 645.083C655.455 642.227 681.812 626.729 681.812 626.729C681.812 626.729 736.924 590.84 778.209 560.67C780.793 558.78 879.893 495.237 922.422 478.866C968.096 461.288 1096.47 468.166 1070.48 576.651C1068.65 584.285 1049 617.243 1051.96 627.399C1054.82 637.176 1141.99 618.012 1149.68 616.319C1327.38 590.822 1349.76 605.978 1375.1 669.298C1389.67 705.738 1433.82 639.178 1507.9 604.788C1746.7 493.917 1826.22 473.097 1855 465.446Z" fill="#7D79FF"/>
<path fill-rule="evenodd" clip-rule="evenodd" d="M0 427.148V354.868C238.599 261.903 465.336 181.36 537.938 349.826C589.464 469.387 526.823 648.036 600.272 696.832C605.905 700.573 612.337 703.552 619.683 705.681C674.558 721.588 860.755 500.968 976.714 719.797C987.771 740.662 1018.97 726.136 1022.31 724.581C1041.4 715.695 1058.13 709.19 1074.31 708.335C1098.47 707.06 1119.86 715.261 1133.76 721.824C1155.63 732.153 1154.36 776.757 1161.52 790.317C1165.46 797.778 1165.98 798.886 1167.44 799.568C1175.38 803.269 1180.52 801.384 1191.56 799.059C1222.7 792.498 1271.24 772.313 1282.37 768.439C1382.05 733.724 1412.05 772.676 1417.76 814.845C1421.24 840.518 1415.73 867.385 1411.44 879.545C1465.53 890.104 1548.71 859.915 1706.02 854.593C1715.37 857.882 1780.72 880.881 1759.71 968.87C1750.97 1005.49 1671.43 987.819 1653.96 980.866C1650.83 931.941 1654.13 936.66 1652.97 931.382C1636.17 855.373 1560.08 908.339 1295.22 912.769C1204.79 914.281 1217.44 874.379 1197.86 848.915C1195.79 846.23 1193.37 843.707 1190.43 841.409C1118.62 785.26 1112.05 796.35 1023.94 815.719C994.183 805.05 987.907 793.059 986.185 789.77C906.707 637.887 847.248 634.48 569.473 774.203C510.102 804.067 488.306 756.976 451.16 687.903C400.894 594.425 507.013 498.719 480.488 410.57C423.913 222.568 143.85 370.469 0 427.148Z" fill="#7AD3FF"/>
<path fill-rule="evenodd" clip-rule="evenodd" d="M0 491.627V421.122C143.822 364.475 423.828 223 480.39 410.906C506.911 499.005 429.25 576.882 460.962 684.276C483.245 759.753 515.839 787.931 576.777 761.644C868.092 635.961 922.468 630.374 985.984 789.903C994.092 810.264 1060.66 832.738 1208.02 868.871C1248.54 878.81 1345.18 884.842 1458.22 877.743C1523.12 873.663 1593.44 862.702 1661.65 852.168C1733.81 841.021 1753.58 871.778 1757.84 876.255C1778.12 897.52 1818.03 984.269 1761.71 997.494C1746.01 1001.18 1714.72 1000.58 1678.04 998.032C1612.91 993.501 1530.86 982.824 1489.11 979.055C1408.96 971.826 1341.47 956.283 1262.43 941.459C1255.47 940.156 1248.43 938.854 1241.28 937.571C1089.09 910.181 960.23 834.654 950.534 837.351C883.021 856.124 897.01 749.288 818.328 726.206C673.715 683.786 690.077 835.782 419.573 820.277C285.783 812.601 435.685 643.016 426.762 534.959C409.116 321.206 104.001 452.289 0 491.627Z" fill="#84FEF3"/>
<path fill-rule="evenodd" clip-rule="evenodd" d="M1417.01 1034.01C1419.28 1033.99 1406.05 1056.05 1411.53 1056C1406.06 1056.05 1419.28 1033.99 1417.01 1034.01Z" fill="#FEF6D0"/>
<path fill-rule="evenodd" clip-rule="evenodd" d="M0 490.36V639.264C8.1263 635.828 17.4978 631.792 27.7768 627.364C119.546 587.836 280.917 512.65 277.065 560.069C277.029 560.512 268.085 579.202 265.934 582.942C257.894 596.919 238.722 617.249 207.277 732.205C207.028 734.429 206.63 737.129 206.172 740.241C198.593 791.704 174.392 956.055 528.509 950.87C590.05 949.972 644.361 925.252 688.953 907.098C718.843 894.929 743.996 878.509 763.166 886.768C898.125 990.748 997.943 951.733 1060.07 927.451C1102.7 910.785 1127.59 901.06 1133.88 949.276C1143.46 1022.59 1162.53 1036.13 1416.2 1034.01L1417.01 1034.01C1435.22 1033.85 1569.5 1032.71 1597.49 1030.95C1645.48 1027.94 1648.08 1022.85 1660.48 997.77C1657.35 948.836 1654.47 935.77 1653.31 930.484C1642.62 882.07 1607.85 885.974 1515.6 896.339C1462.99 902.25 1391.68 910.261 1295.47 911.87C1226.84 913.016 1217.58 890.311 1208.54 868.164C1204.41 858.05 1200.34 848.052 1190.67 840.496C1127.16 790.837 1114.67 793.76 1051.71 808.498C1043.46 810.428 1034.35 812.559 1024.15 814.803C1011.9 818.213 999.716 821.891 987.535 825.568C975.355 829.245 963.175 832.923 950.921 836.333C915.806 846.099 902.729 821.889 887.205 793.145C872.872 766.604 856.45 736.196 818.661 725.107C752.465 705.684 719.985 726.992 678.301 754.339C628.885 786.759 566.535 827.663 419.743 819.246C336.686 814.479 362.919 747.319 392.652 671.196C410.834 624.651 430.323 574.754 426.936 533.723C410.287 331.994 137.869 437.174 19.6379 482.824C12.4999 485.579 5.92381 488.119 0 490.36Z" fill="#FEF6D0"/>
</g>
</g>
<defs>
<clipPath id="clip0_6_136">
<rect width="1440" height="1100" fill="white"/>
</clipPath>
<clipPath id="clip1_6_136">
<rect width="1855" height="996" fill="white" transform="translate(0 60)"/>
</clipPath>
</defs>
</svg>
