<svg width="390" height="1087" viewBox="0 0 390 1087" fill="none" xmlns="http://www.w3.org/2000/svg">
<g clip-path="url(#clip0_171_428)">
<rect width="390" height="1087" fill="white"/>
<g clip-path="url(#clip1_171_428)">
<mask id="mask0_171_428" style="mask-type:luminance" maskUnits="userSpaceOnUse" x="-115" y="0" width="1386" height="1206">
<path d="M1271 0H-115V1206H1271V0Z" fill="white"/>
</mask>
<g mask="url(#mask0_171_428)">
<path d="M1271 0H-115V1206H1271V0Z" fill="white"/>
<mask id="mask1_171_428" style="mask-type:luminance" maskUnits="userSpaceOnUse" x="-115" y="65" width="1786" height="1093">
<path d="M1670.44 65.7819H-115V1157.76H1670.44V65.7819Z" fill="white"/>
</mask>
<g mask="url(#mask1_171_428)">
<path fill-rule="evenodd" clip-rule="evenodd" d="M526.239 482.21C537.679 351.222 549.721 301.277 549.721 246.235C549.721 195.372 549.118 111.763 455.191 73.443C370.308 38.8127 189.061 131.272 127.647 158.031C127.647 158.031 127.647 158.031 9.03352 207.213C-82.4865 245.159 -82.5301 242.774 -95.1307 247.389C-74.0837 240.32 -101.067 249.563 -95.1307 247.389C-112.895 254.643 -107.057 251.398 -115 254.456V335.665C-79.04 329.396 -32.0812 310.195 19.416 289.142C200.923 214.933 438.809 117.674 450.207 482.21C451.234 515.032 448.014 551.516 444.951 586.23C436.568 681.199 429.356 762.917 513.483 720.131C513.549 720.098 514.185 719.656 515.343 718.852C535.953 704.538 722.527 573.212 826.688 569.523C868.367 568.046 874.334 601.551 881.284 636.605C885.519 657.954 945.04 839.69 957.947 856.956C976.687 882.037 1200.59 959.474 1221.67 942.157C1244.55 889.512 1261.73 888.397 1236.12 847.258C1196.96 784.38 1118.7 990.158 1048.26 736.045C1040.43 680.11 1034.41 763.916 1030.8 692.151C1006.48 626.395 1038 576.989 1013.92 494.076C989.834 411.165 882.679 411.188 826.688 444.631C770.692 478.075 740.517 500.989 719.444 517.755C709.81 525.419 592.043 625.905 539.661 599.931C516.154 588.277 521.899 531.901 526.239 482.21Z" fill="#CF93FF"/>
<path fill-rule="evenodd" clip-rule="evenodd" d="M1670.44 510.298V646.165C1603.01 644.277 1361.2 809.173 1336.03 825.498C1327.21 831.211 1302.65 866.327 1236.74 885.362C1191.22 898.507 1116.87 909.669 1088.49 897.916C1068.66 889.71 1049.49 843.433 1056.96 821.831C1080.3 754.249 1036.34 786.219 963.154 795.45C916.839 773.365 926.435 776.929 880.63 801.196C877.415 802.893 832.376 818.304 821.735 795.45C710.123 555.8 530.484 801.204 477.666 783.785C378.393 751.041 450.473 531.288 397.073 390.311C327.198 205.816 114.651 295.462 -115 397.275V326.874C46.2823 274.479 465.621 -0.193529 480.109 469.565C483.596 582.538 409.815 737.781 485.653 717.157C492.436 715.315 502.416 711.008 509.756 707.245C515.876 704.114 541.244 687.123 541.244 687.123C541.244 687.123 594.29 647.775 634.025 614.698C636.513 612.626 731.897 542.96 772.831 525.011C816.793 505.739 940.353 513.28 915.337 632.219C913.576 640.589 894.663 676.723 897.512 687.857C900.264 698.576 984.166 677.566 991.567 675.71C1162.6 647.756 1184.14 664.372 1208.53 733.794C1222.56 773.745 1265.05 700.771 1336.35 663.067C1566.2 541.513 1642.74 518.686 1670.44 510.298Z" fill="#6360FF"/>
<path fill-rule="evenodd" clip-rule="evenodd" d="M-115 468.31V389.064C114.651 287.141 332.886 198.836 402.765 383.536C452.359 514.619 392.067 710.483 462.762 763.981C468.183 768.083 474.374 771.349 481.445 773.683C534.262 791.123 713.477 549.243 825.087 789.159C835.729 812.035 865.758 796.109 868.973 794.404C887.347 784.662 903.45 777.53 919.023 776.593C942.277 775.195 962.865 784.186 976.244 791.382C997.294 802.706 996.071 851.608 1002.96 866.475C1006.76 874.655 1007.26 875.87 1008.66 876.617C1016.3 880.675 1021.25 878.608 1031.88 876.059C1061.85 868.866 1108.57 846.736 1119.28 842.489C1215.22 804.428 1244.1 847.134 1249.59 893.367C1252.94 921.513 1247.64 950.969 1243.51 964.301C1295.57 975.878 1375.63 942.78 1527.04 936.945C1536.04 940.551 1598.94 965.766 1578.72 1062.23C1570.31 1102.38 1493.75 1083.01 1476.94 1075.39C1473.92 1021.75 1477.1 1026.92 1475.98 1021.13C1459.81 937.8 1386.58 995.87 1131.65 1000.73C1044.61 1002.38 1056.79 958.637 1037.94 930.72C1035.95 927.776 1033.62 925.01 1030.79 922.49C961.672 860.931 955.348 873.089 870.542 894.325C841.901 882.628 835.86 869.481 834.203 865.875C757.705 699.356 700.476 695.621 433.118 848.808C375.973 881.55 354.994 829.921 319.241 754.192C270.86 651.706 373 546.777 347.47 450.134C293.016 244.015 23.4556 406.169 -115 468.31Z" fill="#7AD3FF"/>
<path fill-rule="evenodd" clip-rule="evenodd" d="M-115 539.002V461.703C23.4287 399.597 292.934 244.489 347.375 450.503C372.902 547.091 298.153 632.473 328.676 750.216C350.123 832.966 381.495 863.859 440.148 835.039C720.538 697.245 772.875 691.119 834.01 866.021C841.813 888.344 905.885 912.984 1047.72 952.599C1086.72 963.495 1179.74 970.109 1288.54 962.326C1351 957.853 1418.69 945.835 1484.34 934.286C1553.79 922.065 1572.82 955.786 1576.92 960.694C1596.44 984.008 1634.85 1079.12 1580.65 1093.62C1565.53 1097.66 1535.42 1097 1500.11 1094.21C1437.43 1089.24 1358.45 1077.53 1318.27 1073.4C1241.12 1065.47 1176.16 1048.43 1100.09 1032.18C1093.39 1030.75 1086.61 1029.33 1079.73 1027.92C933.249 997.89 809.221 915.084 799.889 918.041C734.908 938.623 748.372 821.492 672.641 796.186C533.451 749.678 549.199 916.321 288.839 899.322C160.066 890.906 304.347 704.98 295.758 586.51C278.774 352.159 -14.899 495.873 -115 539.002Z" fill="#84FEF3"/>
<path fill-rule="evenodd" clip-rule="evenodd" d="M-115 537.613V700.866C-107.178 697.099 -98.1584 692.674 -88.2648 687.819C0.0630325 644.482 155.383 562.051 151.675 614.039C151.64 614.525 143.032 635.016 140.961 639.117C133.223 654.44 114.77 676.729 84.5041 802.763C84.2645 805.201 83.8814 808.162 83.4406 811.573C76.1458 867.996 52.8523 1048.18 393.69 1042.5C452.923 1041.51 505.197 1014.41 548.117 994.509C576.886 981.168 601.095 963.165 619.547 972.22C749.445 1086.22 845.519 1043.45 905.317 1016.82C946.349 998.552 970.296 987.889 976.36 1040.75C985.58 1121.13 1003.94 1135.98 1248.09 1133.65H1248.87C1266.4 1133.48 1395.64 1132.23 1422.58 1130.3C1468.77 1127 1471.28 1121.42 1483.21 1093.92C1480.2 1040.27 1477.43 1025.94 1476.31 1020.15C1466.02 967.07 1432.56 971.35 1343.77 982.714C1293.13 989.194 1224.49 997.977 1131.89 999.741C1065.83 1001 1056.92 976.105 1048.22 951.824C1044.24 940.735 1040.33 929.773 1031.02 921.489C969.892 867.045 957.87 870.25 897.271 886.408C889.33 888.524 880.562 890.86 870.744 893.32C858.954 897.059 847.227 901.091 835.502 905.123C823.779 909.154 812.056 913.187 800.262 916.925C766.463 927.632 753.877 901.089 738.935 869.575C725.139 840.477 709.333 807.139 672.961 794.981C609.248 773.686 577.986 797.048 537.865 827.03C490.302 862.574 430.29 907.42 289.003 898.192C209.06 892.965 234.31 819.333 262.928 735.875C280.428 684.845 299.186 630.14 295.926 585.155C279.901 363.986 17.6989 479.302 -96.0985 529.351C-102.969 532.371 -109.298 535.156 -115 537.613Z" fill="#FEF6D0"/>
</g>
</g>
</g>
</g>
<defs>
<clipPath id="clip0_171_428">
<rect width="390" height="1087" fill="white"/>
</clipPath>
<clipPath id="clip1_171_428">
<rect width="1386" height="1206" fill="white" transform="translate(-115)"/>
</clipPath>
</defs>
</svg>
