<svg width="100%" height="100%" viewBox="0 0 390 703" preserveAspectRatio="none" fill="none" xmlns="http://www.w3.org/2000/svg">
<g clip-path="url(#clip0_179_681)">
<rect width="390" height="703" fill="white"/>
<g clip-path="url(#clip1_179_681)">
<mask id="mask0_179_681" style="mask-type:luminance" maskUnits="userSpaceOnUse" x="-891" y="-469" width="1919" height="1375">
<path d="M1028 -468.731H-891V905.395H1028V-468.731Z" fill="white"/>
</mask>
<g mask="url(#mask0_179_681)">
<path fill-rule="evenodd" clip-rule="evenodd" d="M-734 142.8V75.72C-416.034 -10.5565 -113.875 -85.3047 -17.123 71.0408C51.5425 182 -31.9353 347.796 65.9457 393.081C73.4524 396.553 82.024 399.318 91.8136 401.293C164.942 416.056 413.075 211.309 567.607 414.394C582.342 433.758 623.919 420.277 628.37 418.834C653.81 410.587 676.105 404.55 697.667 403.756C729.864 402.573 758.369 410.184 776.893 416.275C806.037 425.861 804.345 467.256 813.887 479.84C819.137 486.764 819.83 487.793 821.776 488.426C832.357 491.86 839.207 490.111 853.919 487.953C895.417 481.864 960.104 463.132 974.936 459.536C1107.77 427.319 1147.75 463.468 1155.36 502.603C1160 526.429 1152.66 551.363 1146.94 562.649C1219.02 572.448 1329.87 544.431 1539.51 539.492C1551.97 542.544 1639.06 563.888 1611.06 645.547C1599.41 679.532 1493.41 663.133 1470.13 656.68C1465.96 611.275 1470.36 615.654 1468.81 610.756C1446.42 540.216 1345.02 589.371 992.06 593.482C871.55 594.885 888.408 557.854 862.315 534.222C859.556 531.73 856.331 529.389 852.413 527.256C756.716 475.147 747.961 485.439 630.542 503.415C590.887 493.513 582.523 482.385 580.228 479.333C474.313 338.377 395.076 335.215 24.9018 464.886C-54.2183 492.601 -83.2645 448.898 -132.767 384.794C-199.753 298.042 -58.3348 209.222 -93.6831 127.414C-169.077 -47.0615 -542.3 90.1986 -734 142.8Z" fill="#7AD3FF"/>
<path fill-rule="evenodd" clip-rule="evenodd" d="M-734 202.64V137.207C-542.337 84.6358 -169.19 -46.6606 -93.8137 127.726C-58.4707 209.487 -161.965 281.761 -119.704 381.428C-90.009 451.475 -46.573 477.626 34.6353 453.23C422.853 336.589 495.317 331.404 579.96 479.456C590.766 498.352 679.477 519.209 875.854 552.742C929.853 561.966 1058.64 567.564 1209.28 560.976C1295.77 557.19 1389.48 547.017 1480.38 537.241C1576.54 526.896 1602.89 555.44 1608.57 559.595C1635.59 579.33 1688.78 659.838 1613.72 672.112C1592.8 675.532 1551.1 674.975 1502.22 672.611C1415.43 668.406 1306.08 658.497 1250.45 654.999C1143.63 648.29 1053.69 633.865 948.363 620.108C939.088 618.899 929.706 617.69 920.178 616.5C717.364 591.08 545.64 520.987 532.718 523.49C442.748 540.913 461.39 441.763 356.536 420.342C163.819 380.974 185.623 522.034 -174.861 507.645C-353.154 500.521 -153.389 343.137 -165.28 242.854C-188.796 44.4798 -595.404 166.132 -734 202.64Z" fill="#84FEF3"/>
<path fill-rule="evenodd" clip-rule="evenodd" d="M-734 201.464V339.655C-723.171 336.466 -710.682 332.721 -696.984 328.611C-574.688 291.927 -359.639 222.15 -364.772 266.158C-364.82 266.569 -376.739 283.914 -379.606 287.385C-390.32 300.357 -415.87 319.224 -457.775 425.909C-458.106 427.973 -458.637 430.479 -459.247 433.367C-469.347 481.127 -501.598 633.654 -29.6883 628.842C52.3236 628.009 124.701 605.067 184.126 588.219C223.958 576.926 257.477 561.687 283.025 569.352C462.876 665.851 595.896 629.643 678.691 607.108C735.501 591.641 768.657 582.616 777.053 627.363C789.819 695.402 815.233 707.968 1153.28 706.001H1154.36C1178.63 705.852 1357.58 704.794 1394.88 703.161C1458.83 700.367 1462.3 695.643 1478.82 672.368C1474.65 626.954 1470.81 614.828 1469.27 609.923C1455.02 564.992 1408.68 568.615 1285.75 578.234C1215.64 583.72 1120.61 591.155 992.394 592.648C900.935 593.712 888.595 572.64 876.548 552.086C871.044 542.7 865.62 533.421 852.733 526.409C768.097 480.323 751.453 483.036 667.55 496.713C656.555 498.504 644.415 500.482 630.822 502.565C614.497 505.729 598.26 509.143 582.028 512.555C565.796 515.968 549.565 519.381 533.234 522.546C486.439 531.609 469.012 509.141 448.324 482.465C429.223 457.833 407.339 429.613 356.98 419.322C268.764 401.296 225.48 421.071 169.93 446.451C104.077 476.538 20.9866 514.499 -174.634 506.688C-285.319 502.264 -250.36 439.936 -210.737 369.29C-186.507 326.093 -160.535 279.786 -165.048 241.707C-187.236 54.4918 -550.27 152.105 -707.83 194.47C-717.342 197.027 -726.106 199.384 -734 201.464Z" fill="#FEF6D0"/>
</g>
</g>
</g>
<defs>
<clipPath id="clip0_179_681">
<rect width="390" height="703" fill="white"/>
</clipPath>
<clipPath id="clip1_179_681">
<rect width="390" height="581" fill="white" transform="translate(0 76)"/>
</clipPath>
</defs>
</svg>
