<svg width="390" height="648" viewBox="0 0 390 648" fill="none" xmlns="http://www.w3.org/2000/svg">
<g clip-path="url(#clip0_171_390)">
<rect width="390" height="648" fill="white"/>
<g clip-path="url(#clip1_171_390)">
<mask id="mask0_171_390" style="mask-type:luminance" maskUnits="userSpaceOnUse" x="-46" y="36" width="496" height="420">
<path d="M450 36H-46V456H450V36Z" fill="white"/>
</mask>
<g mask="url(#mask0_171_390)">
<path d="M450 36H-46V456H450V36Z" fill="white"/>
<mask id="mask1_171_390" style="mask-type:luminance" maskUnits="userSpaceOnUse" x="-46" y="58" width="639" height="382">
<path d="M592.944 58.9092H-46V439.2H592.944V58.9092Z" fill="white"/>
</mask>
<g mask="url(#mask1_171_390)">
<path fill-rule="evenodd" clip-rule="evenodd" d="M183.476 203.934C187.571 158.316 191.88 140.923 191.88 121.753C191.88 104.04 191.664 74.9226 158.051 61.5772C127.674 49.5169 62.8128 81.7167 40.8348 91.0357C40.8348 91.0357 40.8348 91.0357 -1.61282 108.164C-34.3646 121.379 -34.3802 120.548 -38.8895 122.155C-31.3575 119.693 -41.0139 122.913 -38.8895 122.155C-45.2469 124.682 -43.1573 123.552 -46 124.617V152.898C-33.1312 150.715 -16.3263 144.028 2.10271 136.696C67.0577 110.852 152.189 76.981 156.267 203.934C156.635 215.365 155.483 228.07 154.386 240.16C151.387 273.234 148.806 301.692 178.912 286.792C178.935 286.781 179.163 286.627 179.577 286.346C186.953 281.361 253.721 235.626 290.997 234.341C305.912 233.827 308.048 245.495 310.534 257.703C312.05 265.138 333.35 328.429 337.969 334.443C344.676 343.177 424.804 370.145 432.347 364.114C440.535 345.78 446.683 345.392 437.517 331.065C423.505 309.167 395.499 380.831 370.289 292.334C367.488 272.854 365.332 302.04 364.04 277.048C355.336 254.148 366.617 236.941 357.999 208.066C349.381 179.192 311.034 179.2 290.997 190.847C270.958 202.494 260.159 210.474 252.618 216.313C249.17 218.982 207.025 253.977 188.28 244.931C179.867 240.873 181.923 221.239 183.476 203.934Z" fill="#CF93FF"/>
<path fill-rule="evenodd" clip-rule="evenodd" d="M592.944 213.716V261.033C568.816 260.375 482.278 317.802 473.271 323.487C470.116 325.477 461.325 337.706 437.738 344.335C421.449 348.913 394.841 352.8 384.686 348.707C377.591 345.849 370.73 329.733 373.402 322.21C381.755 298.674 366.024 309.808 339.833 313.022C323.258 305.331 326.692 306.572 310.3 315.024C309.15 315.615 293.032 320.981 289.224 313.022C249.282 229.562 184.996 315.026 166.094 308.96C130.568 297.557 156.362 221.026 137.253 171.929C112.247 107.677 36.1838 138.897 -46 174.355V149.837C11.7172 131.59 161.783 35.9326 166.968 199.53C168.216 238.874 141.812 292.939 168.952 285.756C171.38 285.115 174.951 283.615 177.578 282.304C179.768 281.214 188.846 275.297 188.846 275.297C188.846 275.297 207.829 261.593 222.049 250.074C222.94 249.352 257.074 225.091 271.723 218.84C287.455 212.128 331.673 214.754 322.721 256.176C322.091 259.091 315.322 271.675 316.342 275.552C317.327 279.285 347.352 271.968 350.001 271.322C411.209 261.587 418.917 267.373 427.646 291.55C432.664 305.464 447.871 280.05 473.388 266.919C555.641 224.587 583.031 216.637 592.944 213.716Z" fill="#6360FF"/>
<path fill-rule="evenodd" clip-rule="evenodd" d="M-46 199.093V171.495C36.1841 135.999 114.282 105.247 139.29 169.57C157.038 215.22 135.461 283.432 160.76 302.063C162.701 303.491 164.916 304.629 167.446 305.442C186.348 311.515 250.482 227.279 290.424 310.832C294.232 318.798 304.979 313.252 306.129 312.658C312.704 309.265 318.467 306.782 324.04 306.455C332.362 305.968 339.73 309.1 344.517 311.606C352.05 315.549 351.613 332.58 354.079 337.757C355.436 340.606 355.615 341.029 356.118 341.29C358.853 342.703 360.624 341.983 364.426 341.095C375.152 338.59 391.872 330.883 395.705 329.404C430.039 316.149 440.373 331.022 442.34 347.123C443.538 356.925 441.64 367.183 440.163 371.826C458.794 375.858 487.445 364.331 541.629 362.299C544.85 363.555 567.359 372.336 560.122 405.932C557.112 419.914 529.715 413.167 523.697 410.512C522.619 391.832 523.756 393.634 523.356 391.619C517.57 362.597 491.361 382.82 400.131 384.512C368.983 385.089 373.34 369.854 366.596 360.131C365.883 359.106 365.05 358.143 364.037 357.265C339.302 335.827 337.039 340.061 306.69 347.456C296.441 343.383 294.279 338.804 293.686 337.549C266.31 279.557 245.83 278.256 150.152 331.605C129.702 343.007 122.194 325.027 109.4 298.654C92.0857 262.962 128.638 226.42 119.501 192.763C100.014 120.98 3.54834 177.452 -46 199.093Z" fill="#7AD3FF"/>
<path fill-rule="evenodd" clip-rule="evenodd" d="M-46 223.712V196.792C3.53869 175.163 99.9852 121.146 119.468 192.892C128.603 226.529 101.853 256.264 112.776 297.269C120.451 326.088 131.678 336.847 152.668 326.81C253.009 278.822 271.739 276.688 293.617 337.6C296.409 345.374 319.338 353.955 370.096 367.751C384.053 371.546 417.34 373.849 456.276 371.138C478.63 369.581 502.852 365.396 526.346 361.373C551.201 357.117 558.011 368.861 559.478 370.57C566.464 378.69 580.21 411.812 560.811 416.862C555.403 418.269 544.626 418.04 531.992 417.067C509.558 415.337 481.296 411.26 466.916 409.821C439.308 407.061 416.062 401.126 388.837 395.466C386.44 394.969 384.015 394.472 381.552 393.982C329.131 383.524 284.746 354.686 281.406 355.716C258.152 362.884 262.97 322.092 235.869 313.279C186.057 297.082 191.693 355.117 98.5196 349.197C52.4364 346.266 104.069 281.515 100.996 240.257C94.9177 158.642 -10.1774 208.692 -46 223.712Z" fill="#84FEF3"/>
<path fill-rule="evenodd" clip-rule="evenodd" d="M-46 223.228V280.083C-43.2009 278.771 -39.973 277.23 -36.4324 275.539C-4.82304 260.446 50.7603 231.739 49.4335 249.844C49.4211 250.014 46.3404 257.15 45.5995 258.578C42.8302 263.915 36.2265 271.677 25.3954 315.569C25.3096 316.418 25.1726 317.449 25.0148 318.637C22.4043 338.287 14.0683 401.039 136.042 399.059C157.239 398.717 175.947 389.278 191.306 382.346C201.601 377.7 210.265 371.431 216.868 374.584C263.354 414.286 297.736 399.389 319.135 390.118C333.819 383.754 342.389 380.041 344.559 398.451C347.858 426.443 354.427 431.613 441.802 430.804H442.081C448.354 430.743 494.606 430.307 504.247 429.635C520.776 428.486 521.672 426.543 525.943 416.967C524.865 398.283 523.873 393.294 523.473 391.276C519.791 372.79 507.815 374.281 476.04 378.238C457.919 380.495 433.356 383.554 400.217 384.169C376.578 384.606 373.389 375.937 370.275 367.481C368.852 363.619 367.45 359.802 364.12 356.917C342.244 337.956 337.942 339.072 316.256 344.699C313.414 345.436 310.276 346.25 306.763 347.107C302.543 348.409 298.347 349.813 294.151 351.217C289.956 352.621 285.76 354.025 281.539 355.327C269.444 359.056 264.94 349.812 259.593 338.837C254.656 328.703 248.999 317.093 235.983 312.859C213.182 305.443 201.995 313.579 187.637 324.02C170.616 336.399 149.14 352.017 98.5782 348.803C69.9696 346.983 79.0054 321.34 89.2468 292.275C95.5095 274.503 102.222 255.452 101.056 239.785C95.3211 162.761 1.48821 202.921 -39.2358 220.351C-41.6945 221.403 -43.9596 222.373 -46 223.228Z" fill="#FEF6D0"/>
</g>
</g>
</g>
</g>
<defs>
<clipPath id="clip0_171_390">
<rect width="390" height="648" fill="white"/>
</clipPath>
<clipPath id="clip1_171_390">
<rect width="496" height="420" fill="white" transform="translate(-46 36)"/>
</clipPath>
</defs>
</svg>
