<svg width="257" height="195" viewBox="0 0 257 195" fill="none" xmlns="http://www.w3.org/2000/svg">
<path fill-rule="evenodd" clip-rule="evenodd" d="M0.244016 75.6261C-4.88854 -26.4439 71.7605 2.3287 153.326 8.20815C221.72 -1.78693 253.943 -9.61629 256.854 69.1717C261.162 185.774 169.339 152.626 68.6406 157.186C12.2263 186.524 15.7554 227.045 27.7022 153.079C0.244505 150.145 0.244147 146.675 0.244016 75.6261Z" fill="#FFF6D0"/>
<path d="M0.744141 75.6133L0.743164 75.6006C-0.53747 50.1318 3.29081 32.9182 10.9434 21.4824C18.5825 10.0669 30.0872 4.32908 44.3564 1.92871C58.6419 -0.474337 75.6505 0.476168 94.2236 2.40527C112.769 4.33154 132.892 7.23664 153.29 8.70703L153.345 8.71094L153.398 8.70312C170.51 6.20247 185.322 3.84333 197.982 2.93652C210.646 2.02953 221.085 2.58294 229.464 5.8623C237.813 9.13038 244.159 15.1231 248.61 25.2041C253.071 35.308 255.628 49.5175 256.354 69.1904C257.429 98.2863 252.502 117.949 243.018 131.183C233.541 144.404 219.457 151.289 202.028 154.704C184.588 158.121 163.857 158.052 141.151 157.407C118.464 156.763 93.8165 155.545 68.6182 156.687L68.5078 156.691L68.4102 156.742C40.1186 171.455 26.8226 189.001 22.1875 193.513C21.6182 194.067 21.2381 194.361 21.0078 194.466C20.9412 194.204 20.9352 193.676 21.0371 192.771C21.1384 191.872 21.3352 190.675 21.6172 189.141C22.7433 183.014 25.2077 171.655 28.1953 153.158L28.2803 152.638L27.7549 152.581C20.8778 151.846 15.8155 151.084 12.0439 149.279C8.32115 147.498 5.82973 144.684 4.15039 139.734C2.45929 134.75 1.60179 127.627 1.17285 117.269C0.744304 106.919 0.744173 93.3926 0.744141 75.626V75.6133Z" stroke="black" stroke-opacity="0.2"/>
</svg>
